<svg width="40" height="40" viewBox="0 0 40 40" fill="none" xmlns="http://www.w3.org/2000/svg">
<path d="M22.455 39.915C21.9338 39.8238 21.3938 39.5763 21.0875 39.3025C20.8796 39.0844 20.761 38.7963 20.755 38.495C20.755 38.1888 20.9113 37.7588 21.1588 37.33C21.3088 37.0888 21.4263 36.8288 21.51 36.555C21.5625 36.3663 21.6725 36.06 21.7575 35.865L21.9075 35.5075L21.9463 33.1188C21.9663 31.7975 22.005 30.5738 22.0375 30.3838C22.1225 29.8363 22.265 29.3025 22.4538 28.7825L22.5975 28.4375L22.3888 28.3138C22.2 28.1963 22.0438 28.0338 21.425 27.2975C20.6638 26.3988 19.6613 25.9038 18.2413 25.735C17.7788 25.69 17.31 25.6563 16.8413 25.6375C14.7575 25.54 13.5663 25.1038 12.4925 24.0488C11.6913 23.2613 11.275 22.3425 11.1063 20.9888C10.8788 19.1588 10.625 18.2213 10.1563 17.46C10.0407 17.272 9.90764 17.0954 9.75876 16.9325L9.57001 16.7438L9.15376 17.0113C8.92626 17.1613 8.60626 17.35 8.45001 17.435C7.92876 17.7213 7.43376 18.04 6.95876 18.385C5.79376 19.2313 4.52376 20.2925 3.82751 20.9888C3.51501 21.3013 3.35251 21.4375 3.28001 21.425C2.80501 21.3538 3.16876 19.2963 3.94376 17.7463C4.93376 15.7475 6.60001 13.905 8.52751 12.6613C10.11 11.6388 12.6688 10.2325 13.8525 9.7375C15.955 8.85875 18.6763 7.9075 20.5388 7.4C20.93 7.28875 21.17 7.19125 21.3325 7.08125C21.6975 6.8275 22.055 6.70375 22.465 6.6975C22.81 6.69125 22.8425 6.685 23.175 6.4625C23.5663 6.20875 23.6825 6.195 24.0738 6.3325L24.3275 6.42375L24.64 6.20875L24.9525 6L25.4013 6.00625C25.7463 6.0125 25.9025 6 26.0525 5.935C26.2413 5.85 26.2475 5.8375 26.3 5.525C26.4175 4.8475 26.43 4.50875 26.3588 4.09875C26.2675 3.55875 26.255 1.4625 26.3463 1.05125C26.4438 0.608753 26.5088 0.517503 26.8413 0.355003C27.3363 0.113753 27.7075 0.0425034 28.56 0.0425034C29.6013 0.0425034 30.1288 0.186253 30.52 0.563753C30.8713 0.902503 30.93 1.69625 30.7475 3.55875C30.6363 4.6325 30.6238 4.9325 30.6563 5.635C30.6688 6.08375 30.7013 6.5075 30.715 6.56625C30.7413 6.6775 30.7675 6.68375 31.145 6.69C31.5163 6.69625 31.5813 6.71625 31.9325 6.89875C32.2713 7.075 32.525 7.29 32.5775 7.44625C32.5838 7.47875 32.6425 7.47875 32.7463 7.44625C32.9475 7.3875 33.1238 7.4525 33.2675 7.62875C33.3525 7.74 33.4038 7.75875 33.6 7.75875C33.8675 7.75875 33.965 7.82375 34.1863 8.15C34.2898 8.29643 34.4316 8.41148 34.5963 8.4825C34.9613 8.665 35.4563 9.1725 35.645 9.57625C35.9375 10.175 35.9963 10.8713 35.8138 11.4963C35.7488 11.7313 35.7488 11.7375 35.885 11.965C36.1713 12.4538 36.2763 13.0525 36.1588 13.56L36.0938 13.86L36.2888 14.055C37.2588 15.025 37.115 16.6075 35.9313 18.02C35.799 18.1813 35.6873 18.3585 35.5988 18.5475C35.3713 19.1525 35.11 19.5763 34.7725 19.9275L34.4275 20.2788H34.0763C33.725 20.2788 33.23 20.1613 32.93 20.005C32.8063 19.94 32.8 19.94 32.8263 20.0175C32.905 20.3038 33.1 21.4688 33.165 22.1138C33.2688 23.1038 33.2363 24.5425 33.1 25.1613C33.0004 25.6195 32.8336 26.0605 32.605 26.47C32.475 26.6788 32.4688 26.7238 32.4938 26.9775C32.5325 27.335 32.4488 27.935 32.305 28.3313C32.1288 28.7938 32.0638 29.0088 32.025 29.2425C31.9925 29.4438 31.9925 29.4438 32.1363 29.4438C32.325 29.4438 32.4288 29.555 32.4288 29.7763C32.4288 29.8738 32.3438 30.4013 32.24 30.9413C31.9538 32.4588 31.9338 32.6275 31.9338 34.0988C31.9275 35.6163 31.9275 35.6025 32.2725 35.83L33.0475 36.3313C33.7143 36.7738 34.4282 37.1406 35.1763 37.425C36.2638 37.855 36.4138 37.965 36.4138 38.33C36.4138 38.4925 36.3813 38.5513 36.245 38.6813C35.8288 39.085 35.0075 39.1763 33.3538 39C32.4944 38.9195 31.6319 38.8782 30.7688 38.8763C28.49 38.8438 28.1575 38.765 27.8588 38.1988C27.69 37.8738 27.7225 37.45 27.9563 36.7538C28.06 36.4475 28.1513 36.135 28.23 35.8163C28.3863 35.0613 28.2825 34.1625 27.9175 33.1475L27.605 32.2813C27.2988 31.4025 27.13 29.7938 27.3125 29.43C27.345 29.3588 27.4038 29.345 27.56 29.3513L27.755 29.3713L27.9175 29.0325C28.0413 28.765 28.1775 28.59 28.5488 28.2188L29.0238 27.7438L28.9975 27.4375C28.9775 27.145 28.5938 25.725 28.5413 25.7313C28.5213 25.7313 28.4175 25.875 28.3 26.0563C28.0138 26.4863 27.3825 27.15 27.0238 27.3913C26.8675 27.495 26.7375 27.6188 26.7375 27.6588C26.7313 27.835 26.5813 28.18 26.3988 28.42C26.2225 28.655 26.21 28.6938 26.2363 28.9013C26.2813 29.2075 26.1838 30.19 26.0675 30.705C25.9621 31.0874 25.8181 31.4581 25.6375 31.8113C25.1888 32.7425 24.85 33.575 24.765 33.96C24.7036 34.3307 24.6644 34.7047 24.6475 35.08C24.6275 35.5225 24.5825 35.9525 24.55 36.0438C24.505 36.1675 24.505 36.265 24.5438 36.4538C24.5763 36.59 24.5963 36.8963 24.5888 37.1375C24.5825 37.47 24.6088 37.685 24.7063 38.075C24.875 38.7388 24.9075 39.1563 24.83 39.4038C24.7775 39.56 24.7263 39.6188 24.55 39.7038C24.1588 39.905 23.0525 40.0163 22.4538 39.9125L22.455 39.915ZM24.0363 39.3813C24.2638 39.3163 24.46 39.1213 24.46 38.945C24.46 38.8663 24.395 38.6388 24.3163 38.4375C24.16 38.0538 23.8925 37.0375 23.8925 36.8688C23.8925 36.7838 23.8988 36.7775 24.0288 36.8488L24.1725 36.9275V36.745C24.1517 36.5768 24.1144 36.411 24.0613 36.25C23.9375 35.8788 23.925 35.8725 23.1363 35.8263L22.6025 35.8L22.4075 35.9888C22.3003 36.0991 22.2063 36.2216 22.1275 36.3538C22.0425 36.5225 22.01 36.7775 22.0625 36.835C22.075 36.855 22.2063 36.835 22.3488 36.8025C22.4334 36.7773 22.5206 36.7622 22.6088 36.7575C22.6088 36.7638 22.465 36.8813 22.2838 37.005C21.5025 37.5913 21.2288 37.9488 21.2288 38.405C21.2288 38.88 21.6775 39.2513 22.3813 39.3625C22.8625 39.4338 23.8 39.4538 24.035 39.3825L24.0363 39.3813ZM34.6288 38.6063C34.8238 38.3713 34.7975 38.1313 34.55 37.8575C34.4063 37.7138 34.2438 37.59 34.0613 37.4925C33.8788 37.395 33.6963 37.2838 33.5138 37.1675C33.1837 36.9536 32.8446 36.7538 32.4975 36.5688C32.1975 36.4063 31.905 36.2363 31.6188 36.055L31.5013 35.9638V34.1738C31.5013 32.41 31.495 32.3838 31.4038 32.41C30.9475 32.5338 30.1925 32.5925 29.2363 32.5725L28.2013 32.56L28.3513 32.925C28.6313 33.615 28.775 34.54 28.775 35.6013C28.775 35.9988 28.7488 36.1413 28.6513 36.4213C28.5988 36.5575 28.5538 36.695 28.5075 36.8313C28.4875 36.89 28.56 36.935 28.8263 37.0138C29.0213 37.0725 29.3075 37.1313 29.4713 37.15L29.7713 37.1825L29.7388 37.4825C29.7063 37.8213 29.745 38.1788 29.83 38.29C29.8825 38.355 30.0775 38.3813 30.9825 38.42C31.6663 38.4525 32.4088 38.5238 32.9938 38.6088C33.5013 38.6875 34.0488 38.7525 34.2113 38.7525C34.485 38.7588 34.5113 38.7463 34.6275 38.6088L34.6288 38.6063ZM24.2063 35.56C24.2325 35.54 24.2713 35.1888 24.285 34.7725C24.3375 33.6075 24.3825 33.4375 24.9688 32.1225C25.45 31.0488 25.705 30.0463 25.685 29.3363L25.6725 28.9125L25.49 29.0888C25.1125 29.4663 25.3725 28.8738 25.8225 28.3463C26.1613 27.9425 26.2788 27.7213 26.33 27.3638C26.3563 27.22 26.4088 27.1488 26.63 26.98C27.4578 26.3546 28.0957 25.5116 28.4725 24.545C28.5638 24.31 28.7975 23.51 28.9938 22.7675C29.3588 21.3938 29.5538 20.8013 29.73 20.5475C29.795 20.45 29.8213 20.43 29.8088 20.495C29.7144 20.8441 29.6405 21.1985 29.5875 21.5563C29.535 21.875 29.4375 22.5 29.3725 22.9363C29.2488 23.8288 29.1188 24.4013 28.9425 24.8438L28.825 25.1438L29.1375 25.9513C29.4625 26.7775 29.6125 27.3775 29.6388 27.9563L29.6588 28.2813L29.405 28.3338C29.0701 28.393 28.7712 28.5799 28.5713 28.855C28.35 29.1738 28.2263 29.435 28.285 29.4925C28.3113 29.5188 28.63 29.5775 28.995 29.6225C29.5613 29.6875 29.7763 29.6875 30.525 29.6425C30.85 29.63 31.17 29.5975 31.4888 29.5513C31.56 29.525 31.6325 29.3825 31.7488 29.0113C32.0163 28.1588 32.0675 27.8588 32.035 27.26L32.0088 26.7325L32.145 26.5563C32.4638 26.1525 32.7113 25.4238 32.815 24.57C32.9388 23.5288 32.7113 21.3475 32.2875 19.4725C32.0863 18.58 32.0013 18.0463 32.0013 17.6563V17.3113L31.6825 17.3438C30.5363 17.4675 29.15 17.435 28.3038 17.2588C27.8413 17.1675 26.6763 16.8225 26.4225 16.7113L26.2213 16.62L26.195 16.8475C26.175 16.9713 26.1563 17.095 26.13 17.225C26.0913 17.3613 26.1038 17.3938 26.345 17.6288C26.645 17.935 26.7363 18.0913 26.7363 18.2988C26.7363 18.4288 26.665 18.5338 26.3 18.9113C26.0383 19.1905 25.748 19.4415 25.4338 19.66L25.01 19.9463L24.8275 20.5775C24.1763 22.8888 24.0525 24.9913 24.4825 26.495L24.5863 26.8725L24.3775 27.1325C23.5963 28.115 23.1338 28.8638 23.0625 29.2813C23.0209 29.4868 22.9729 29.6911 22.9188 29.8938C22.75 30.5388 22.6188 31.4825 22.5613 32.505C22.5212 33.361 22.4649 34.2161 22.3925 35.07L22.36 35.3238L22.685 35.4213C22.8675 35.48 23.1413 35.545 23.2975 35.5713C23.59 35.6163 24.1313 35.6038 24.215 35.5588L24.2063 35.56ZM30.5275 31.9788C31.035 31.9463 31.4975 31.8675 31.5888 31.79C31.6275 31.7638 31.6738 31.6275 31.6863 31.49L31.7188 31.2425L31.315 31.3338C30.9963 31.3988 30.6775 31.4375 30.3575 31.4638C29.5888 31.4963 28.815 31.4763 28.0525 31.3988C27.7988 31.36 27.7988 31.36 27.8763 31.6913C27.9413 31.9388 27.955 31.9513 28.6188 31.9975C29.0613 32.0363 29.68 32.03 30.5263 31.9775L30.5275 31.9788ZM30.1038 30.8463C30.7675 30.7875 31.595 30.645 31.7575 30.56C31.81 30.5338 31.855 30.4363 31.875 30.325L31.9338 29.98L31.9663 29.8175L31.8038 29.85C31.0813 30 30.5338 30.045 29.44 30.045C28.3725 30.045 28.2488 30.0388 27.9688 29.9413C27.8612 29.8959 27.7466 29.8693 27.63 29.8625C27.585 29.8888 27.5775 30.26 27.6175 30.52C27.6438 30.6763 27.67 30.7025 27.8263 30.7475C28.3213 30.8838 29.155 30.9163 30.105 30.8388L30.1038 30.8463ZM18.0213 24.9738C19.6875 24.4925 21.8688 23.0788 23.6525 21.3088C24.2325 20.7288 24.3038 20.6513 24.3813 20.3913L24.485 20.0588C24.4975 20.0325 24.3938 19.9875 24.2575 19.955C23.9 19.87 23.6263 19.6625 23.6263 19.4738C23.6263 19.3625 23.5613 19.2525 23.3725 19.05C23.0663 18.705 22.9888 18.555 22.9563 18.2238L22.93 17.9563L22.565 17.6963C22.3563 17.5463 21.6275 17.1425 20.8525 16.7525C20.2624 16.4646 19.6848 16.1518 19.1213 15.815C18.47 15.3788 18.0338 14.8575 17.7863 14.24C17.7413 14.1163 17.6825 14.0125 17.6625 14.0125C17.61 14.0125 16.145 15.425 15.52 16.0888C13.9775 17.7163 12.9163 19.1288 12.245 20.4375C12.0763 20.7625 11.8938 21.1475 11.8413 21.29L11.7438 21.55L11.8613 21.9863C11.9325 22.2213 12.0825 22.605 12.2 22.8325C12.61 23.64 13.0988 24.1275 13.9063 24.525C14.7725 24.955 15.54 25.105 16.8225 25.085C17.5125 25.0788 17.715 25.0588 18.02 24.9675L18.0213 24.9738ZM4.87001 19.2638C5.96376 18.2938 7.47376 17.2325 9.32376 16.1325C10.535 15.41 15.2163 13.0663 17.3713 12.1088C17.7625 11.9325 18.1138 11.77 18.1525 11.7513C18.1913 11.725 18.3025 11.445 18.4063 11.1325C18.8625 9.6875 19.09 9.40125 19.9163 9.2125C20.02 9.18625 20.0463 9.15375 20.0463 9.05C20.0463 8.86125 20.1763 8.425 20.2875 8.23C20.3725 8.08 20.3725 8.07375 20.3 8.09375C20.255 8.10625 19.9813 8.185 19.695 8.27C15.7238 9.41625 12.2538 10.9388 9.25876 12.84C6.06251 14.8713 4.22001 17.3063 3.68626 20.2225L3.64751 20.4375L4.03876 20.0538C4.24751 19.8388 4.62501 19.4875 4.87251 19.2725L4.87001 19.2638ZM34.33 19.8175C34.6488 19.655 35.1438 18.9063 35.3263 18.3138C35.3788 18.105 35.4825 17.91 35.6325 17.7475C36.1138 17.2138 36.5113 16.2438 36.5175 15.58C36.5175 14.545 35.9313 14.1475 35.0788 14.59C34.9675 14.6425 34.8775 14.6813 34.8638 14.6688C34.8188 14.6238 35.0588 14.3888 35.3525 14.2063C35.7363 13.9525 35.8088 13.8025 35.8088 13.2625C35.8144 12.826 35.6847 12.3985 35.4375 12.0388C35.32 11.8625 35.275 11.7463 35.2938 11.6738L35.4113 11.2375C35.5738 10.6575 35.515 9.99375 35.2613 9.57125C34.8838 8.93375 34.4213 8.62125 33.7763 8.56875L33.3988 8.5425L33.62 8.79C34.2775 9.5 34.5963 10.3913 34.4663 11.1538C34.4013 11.545 34.3425 11.6225 33.965 11.7725L33.7438 11.8638L33.77 12.1638C33.815 12.6525 33.7313 13.01 33.4188 13.6675C33.2625 14 33.145 14.2988 33.1588 14.3313C33.1975 14.4425 33.6275 14.65 33.9663 14.735L34.2988 14.8138L34.09 14.885C33.8163 14.97 33.7575 15.0938 33.7575 15.5425C33.7575 15.9525 33.8163 16.1225 34.115 16.5713C34.2513 16.7663 34.3425 16.9688 34.3563 17.085C34.3825 17.2675 34.3763 17.28 34.2263 17.3325C34.0562 17.3802 33.8814 17.4087 33.705 17.4175C33.0925 17.4563 33.0475 17.4763 32.7738 17.7363C32.5263 17.9713 32.52 17.9838 32.52 18.2438C32.52 18.6013 32.6563 19.325 32.7413 19.4225C32.8525 19.54 33.47 19.8463 33.7113 19.8913C33.9193 19.9435 34.1393 19.9182 34.33 19.82V19.8175ZM25.3125 19.33C25.71 19.0175 26.0225 18.705 26.1975 18.4375C26.3088 18.275 26.315 18.2425 26.2625 18.105C26.1713 17.8963 25.5725 17.3563 25.24 17.1938C25.0185 17.0945 24.7841 17.0268 24.5438 16.9925L24.1338 16.94L23.88 16.6213C23.3525 15.97 23.06 15.4625 22.6425 14.4788C22.2775 13.645 21.9588 13.1575 21.4513 12.675C21.2425 12.48 21.0938 12.3175 21.1063 12.3175C21.1325 12.3175 21.38 12.4413 21.6663 12.5913C22.1413 12.845 22.2 12.865 22.415 12.8325C23.19 12.7413 23.8738 11.85 24.1213 10.6C24.1925 10.2488 24.3363 9.89 24.4863 9.675C24.4925 9.66875 24.7925 9.86375 25.1438 10.1175C26.0363 10.7488 26.2313 10.8463 26.7388 10.8663C27.0713 10.8788 27.26 10.8538 27.8588 10.71C29.135 10.3975 30.515 10.2738 31.355 10.385C31.83 10.45 32.5138 10.6588 33.0213 10.8988C33.5225 11.1338 33.62 11.1463 33.7825 11.0025C33.9188 10.885 33.9188 10.8663 33.9188 10.43C33.9125 9.785 33.6775 9.08875 33.32 8.6725C33.1375 8.4575 32.6238 8.10625 32.115 7.83875C31.9342 7.74283 31.7542 7.64532 31.575 7.54625C31.3338 7.4025 31.0613 7.4225 30.3188 7.6175C29.4588 7.83875 29.2313 7.83875 28.2488 7.585C27.415 7.37625 27.3638 7.37 26.5425 7.5C26.1063 7.565 25.0125 7.52625 24.6475 7.42875C24.465 7.37625 24.2825 7.325 24.1075 7.26C23.7888 7.13625 23.235 7.11625 22.7338 7.2075C21.7375 7.38375 20.9825 7.92375 20.7088 8.65875C20.565 9.03 20.585 9.20625 20.7738 9.3225C21.0738 9.51125 21.47 10.0263 21.47 10.2275C21.47 10.24 21.3725 10.1563 21.2613 10.0388C20.9813 9.74625 20.7275 9.615 20.4275 9.615C20.2334 9.62039 20.0447 9.67989 19.8826 9.78678C19.7205 9.89368 19.5914 10.0437 19.51 10.22C19.4224 10.45 19.3485 10.685 19.2888 10.9238C19.1063 11.5875 18.9438 11.94 18.5988 12.4088C18.2925 12.8325 18.2475 13.0213 18.3575 13.4963C18.6313 14.6938 19.1063 15.1763 21.0913 16.3025C22.1325 16.895 22.6663 17.2275 23.0575 17.52C23.3575 17.7413 23.3638 17.755 23.3375 17.9238C23.2788 18.315 23.5263 18.7375 24.015 19.0825C24.1388 19.1675 24.2163 19.2588 24.2163 19.3238C24.2163 19.4413 24.5488 19.6038 24.7888 19.6038C24.925 19.6038 25.03 19.545 25.31 19.33H25.3125ZM33.34 17.135C34.095 17.1613 34.1338 17.1025 33.7313 16.6338C33.3075 16.145 33.1913 15.7488 33.3475 15.3125L33.4125 15.1438L33.145 15.0138C33.0538 14.9688 32.9625 14.9225 32.8713 14.89C32.8263 15.0663 32.78 15.235 32.7413 15.4113C32.6438 15.8088 32.5263 16.8375 32.52 17.2738C32.52 17.3125 32.585 17.3 32.6963 17.2288C32.8525 17.1375 32.9313 17.125 33.3413 17.1375L33.34 17.135ZM30.8075 17.0963C31.2638 17.07 31.7325 17.0375 31.8563 17.0175L32.0838 16.985L32.11 16.2363C32.1488 15.1688 32.305 14.5375 32.7675 13.5275C33.0925 12.8113 33.2363 12.1863 33.165 11.7175C33.1388 11.5163 33.1263 11.5025 32.8525 11.385C32.3513 11.186 31.8292 11.0438 31.2963 10.9613C30.7825 10.89 29.2713 10.9288 28.705 11.04C28.47 11.0788 28.0413 11.17 27.755 11.2413C27.045 11.4038 26.6675 11.385 26.1275 11.15C25.5938 10.915 25.255 10.7013 24.9363 10.4013C24.6825 10.1663 24.6563 10.1538 24.5913 10.2325C24.5388 10.2913 24.5125 10.4675 24.4938 10.845C24.4738 11.425 24.3825 11.73 24.1288 12.14C24.0724 12.2244 24.0242 12.3139 23.985 12.4075C23.985 12.4275 24.18 12.655 24.4213 12.9025C25.255 13.7688 25.665 13.99 26.3225 13.9438C26.5375 13.9238 26.6875 13.9313 26.6875 13.9563C26.6875 14.0088 26.2638 14.34 26.0888 14.4313C26.0038 14.4763 25.985 14.5225 25.9975 14.62L26.1013 15.3038C26.16 15.695 26.205 15.8763 26.2638 15.9288C26.42 16.0588 27.2275 16.4763 27.735 16.6838C28.3988 16.9513 28.7638 17.0488 29.2713 17.0938C29.8963 17.1463 29.9088 17.1463 30.8075 17.0938V17.0963ZM25.4238 16.38C25.4363 16.36 25.3913 15.9825 25.3063 15.5463C25.2025 14.9538 25.1438 14.7388 25.0788 14.68C25.0338 14.6413 24.7925 14.4713 24.5513 14.2963C24.2343 14.0683 23.9339 13.8181 23.6525 13.5475L23.2038 13.105L22.9625 13.2288L22.7088 13.365C22.7301 13.4667 22.765 13.5651 22.8125 13.6575C22.8838 13.8138 23.0275 14.1975 23.1313 14.51C23.405 15.3238 23.62 15.715 24.16 16.4238L24.3613 16.6913L24.745 16.75C24.96 16.7825 25.175 16.8288 25.2338 16.8475C25.325 16.8863 25.3375 16.8675 25.3638 16.6588C25.3763 16.5675 25.3963 16.47 25.4225 16.3788L25.4238 16.38ZM33.6725 8.28125C34.005 8.24875 34.0638 8.2025 33.92 8.05375C33.8288 7.9625 33.62 7.95625 33.4513 8.03375C33.34 8.08625 33.315 8.0725 33.1388 7.88375C32.9563 7.6825 32.9438 7.675 32.715 7.70125C32.5063 7.7275 32.4738 7.72125 32.4475 7.63625C32.3662 7.49663 32.2652 7.36948 32.1475 7.25875C31.9997 7.09075 31.8148 6.95938 31.6075 6.875C31.2038 6.71875 30.9763 6.73875 30.5913 6.95375C29.4775 7.55875 29.5238 7.5525 28.4488 7.27875C27.4463 7.025 26.6975 6.765 26.4563 6.60125C26.255 6.465 25.825 6.315 25.4663 6.26875C25.1988 6.23 25.03 6.28875 24.7763 6.49625L24.64 6.6075L24.7638 6.8225C24.9325 7.1225 24.9138 7.14125 24.66 6.92C24.3863 6.6925 24.0613 6.53625 23.8525 6.52875C23.7025 6.52875 23.26 6.72375 23.2075 6.80875C23.1875 6.835 23.325 6.8675 23.5075 6.88C23.6963 6.9 23.9563 6.965 24.1325 7.03625C24.5888 7.23125 24.8225 7.29625 25.2388 7.33625C25.695 7.38125 26.5213 7.33 26.6188 7.25125C26.6713 7.20625 26.8138 7.19875 27.1138 7.225C27.5113 7.25125 27.6738 7.29 28.6175 7.54375C29.165 7.69375 29.5488 7.68 30.2 7.505C30.5 7.42 30.8775 7.33625 31.0338 7.31625C31.3013 7.29 31.3525 7.30375 31.77 7.4925C32.4338 7.7925 32.7863 7.98125 32.9813 8.15625C33.1763 8.325 33.2025 8.325 33.6713 8.28625L33.6725 8.28125ZM29.9613 7.1425L30.3588 6.93375L30.3463 6.53C30.34 6.25 30.3263 5.97625 30.3138 5.70375L30.2813 5.2875L29.8838 5.59375C29.6488 5.77625 29.4213 5.9125 29.3238 5.9325C29.0375 5.985 27.625 5.9325 27.4938 5.86125C27.3189 5.73209 27.1554 5.58823 27.005 5.43125L26.64 5.06L26.6338 5.28125C26.6338 5.39875 26.6213 5.6 26.595 5.72375C26.5625 5.95875 26.5625 5.965 26.8163 6.28375C26.9525 6.46 27.0638 6.61625 27.0638 6.635C27.0638 6.75875 28.945 7.345 29.3688 7.35125C29.505 7.35125 29.675 7.2925 29.9613 7.1425ZM29.2063 5.66375C29.675 5.5725 29.9025 5.23375 30.0788 4.375C30.2613 3.45 30.3525 1.99875 30.2675 1.38C30.1888 0.820003 29.5638 0.572503 28.3725 0.611253C27.63 0.637503 27.3238 0.708753 27.07 0.923753C26.9138 1.05375 26.9138 1.0675 26.8425 1.685C26.7125 2.87 26.9075 4.55625 27.2463 5.1875C27.4088 5.49375 27.5525 5.60375 27.8513 5.65625C28.19 5.715 28.9125 5.715 29.205 5.6625L29.2063 5.66375Z" fill="black"/>
</svg>
