<svg width="40" height="40" viewBox="0 0 40 40" fill="none" xmlns="http://www.w3.org/2000/svg">
<g clip-path="url(#clip0_105_279)">
<path d="M39.2456 18.218L21.7812 0.754588C20.7761 -0.251194 19.1448 -0.251194 18.1384 0.754588L14.5119 4.38115L19.1123 8.98162C20.1814 8.62037 21.4073 8.86271 22.2595 9.7149C23.1158 10.5726 23.3564 11.809 22.9864 12.8815L27.42 17.3152C28.4927 16.9457 29.7303 17.1847 30.587 18.0429C31.7844 19.2397 31.7844 21.1796 30.587 22.3772C29.3894 23.5751 27.4495 23.5751 26.2512 22.3772C25.3506 21.4757 25.1281 20.153 25.5841 19.0435L21.4494 14.9088L21.4489 25.7896C21.7486 25.9378 22.0224 26.1336 22.2595 26.3693C23.4569 27.5662 23.4569 29.5062 22.2595 30.7047C21.0619 31.9019 19.1211 31.9019 17.9252 30.7047C16.7278 29.5062 16.7278 27.5663 17.9252 26.3694C18.2121 26.0824 18.5531 25.855 18.9284 25.7005V14.7183C18.5525 14.5649 18.2114 14.3374 17.9252 14.0494C17.018 13.1435 16.7998 11.8124 17.2647 10.6985L12.7297 6.16302L0.754687 18.1372C-0.251563 19.144 -0.251563 20.7754 0.754687 21.7813L18.2194 39.2451C19.2248 40.251 20.8558 40.251 21.8625 39.2451L39.2455 21.8624C40.2514 20.8562 40.2514 19.2238 39.2455 18.218" fill="#DE4C36"/>
</g>
<defs>
<clipPath id="clip0_105_279">
<rect width="40" height="40" fill="white"/>
</clipPath>
</defs>
</svg>
