<svg width="40" height="40" viewBox="0 0 40 40" fill="none" xmlns="http://www.w3.org/2000/svg">
<g clip-path="url(#clip0_105_269)">
<path d="M32.8869 12.9516C32.4612 12.7876 32.032 12.6357 31.5995 12.496C31.6721 12.1627 31.739 11.8334 31.7984 11.5099C32.773 6.19741 32.1359 1.91759 29.9596 0.508467C27.8731 -0.84241 24.4607 0.566186 21.0144 3.93408C20.6748 4.2666 20.3427 4.60869 20.0184 4.96005C19.8014 4.72641 19.5805 4.4973 19.3558 4.27285C15.7439 0.6718 12.1236 -0.845919 9.94973 0.567239C7.86506 1.92233 7.24777 5.94566 8.12519 10.9804C8.21249 11.479 8.31105 11.9751 8.42079 12.4681C7.90834 12.6316 7.41385 12.8057 6.9406 12.9909C2.70595 14.6488 0.00164795 17.2469 0.00164795 19.9418C0.00164795 22.7251 2.90484 25.5169 7.31542 27.2097C7.67299 27.3464 8.03354 27.473 8.39673 27.5895C8.27878 28.1205 8.17406 28.6551 8.0827 29.1927C7.2462 34.14 7.89943 38.0683 9.97848 39.4148C12.1258 40.8053 15.7299 39.3762 19.2391 35.9314C19.5237 35.6514 19.802 35.3634 20.0737 35.0678C20.4249 35.4482 20.7854 35.8176 21.1549 36.1755C24.5543 39.46 27.9115 40.7864 29.9885 39.4362C32.1338 38.0416 32.8311 33.8216 31.9259 28.6874C31.8546 28.2852 31.7746 27.8849 31.6861 27.4871C31.9392 27.4029 32.1876 27.3162 32.4297 27.226C37.015 25.5202 39.9983 22.7623 39.9983 19.9418C39.9983 17.2371 37.2067 14.6214 32.8869 12.9516ZM31.8924 25.405C31.6737 25.4862 31.4494 25.5646 31.2206 25.6409C30.7144 23.8414 30.0313 21.9281 29.1953 19.9511C29.9931 18.0213 30.6499 16.1323 31.1419 14.3446C31.5511 14.4776 31.9481 14.6178 32.3308 14.7657C36.0321 16.1965 38.2897 18.3118 38.2897 19.9418C38.2897 21.6779 35.8515 23.9318 31.8924 25.405ZM30.2498 29.06C30.65 31.3302 30.7071 33.3829 30.4419 34.9876C30.2038 36.4295 29.7248 37.3907 29.1324 37.7758C27.872 38.5951 25.1764 37.5302 22.2693 34.7211C21.9257 34.3884 21.5903 34.0449 21.2636 33.6913C22.3907 32.3072 23.517 30.6983 24.6163 28.9113C26.5499 28.7186 28.3766 28.4036 30.0332 27.9736C30.113 28.3337 30.1852 28.696 30.2498 29.06ZM13.6374 37.6343C12.4059 38.1225 11.4251 38.1365 10.8322 37.7527C9.57054 36.9357 9.04605 33.7814 9.76146 29.5506C9.84651 29.0506 9.94388 28.5534 10.0535 28.0595C11.6918 28.4665 13.5052 28.7592 15.4433 28.9357C16.5501 30.6843 17.7089 32.2914 18.8768 33.6988C18.6286 33.9685 18.3745 34.2313 18.1148 34.4869C16.5629 36.01 15.0079 37.0907 13.6374 37.6343ZM7.86818 25.3943C5.91788 24.6457 4.30723 23.6729 3.20326 22.6113C2.21115 21.6574 1.71041 20.7102 1.71041 19.9418C1.71041 18.3064 3.88164 16.2204 7.50306 14.8027C7.94255 14.6307 8.40251 14.4685 8.87982 14.3162C9.3804 16.1443 10.0369 18.0557 10.8292 19.9885C10.0266 21.9499 9.36072 23.8918 8.85529 25.7414C8.52377 25.6348 8.19464 25.519 7.86818 25.3943ZM9.80209 10.6118C9.05043 6.29829 9.54961 3.04443 10.8059 2.22776C12.1439 1.35794 15.1027 2.59812 18.2214 5.70759C18.4247 5.91081 18.6248 6.11816 18.8215 6.32952C17.6594 7.73075 16.5112 9.32601 15.4143 11.0643C13.5332 11.26 11.7326 11.5744 10.0771 11.9957C9.97507 11.5371 9.88338 11.0757 9.80209 10.612V10.6118ZM27.0549 15.3957C26.6639 14.6372 26.2583 13.8883 25.8386 13.1495C27.1147 13.3307 28.3374 13.5713 29.4856 13.8653C29.141 15.106 28.7113 16.403 28.2056 17.7329C27.8359 16.9453 27.4523 16.166 27.0549 15.3957ZM20.0192 7.70075C20.8073 8.65952 21.5966 9.72987 22.3729 10.8913C20.798 10.8078 19.2206 10.8074 17.6457 10.8902C18.4228 9.73952 19.2188 8.67057 20.0192 7.70075ZM12.9384 15.4088C12.546 16.173 12.1695 16.9474 11.8093 17.7313C11.3118 16.4062 10.8861 15.1032 10.5384 13.845C11.6796 13.5583 12.8965 13.3239 14.1645 13.146C13.7401 13.8893 13.3313 14.6438 12.9384 15.4086V15.4088ZM14.2009 26.8741C12.8909 26.7099 11.6557 26.4876 10.5148 26.2086C10.8679 24.9279 11.3031 23.5972 11.8113 22.2437C12.173 23.0282 12.551 23.8031 12.9451 24.5676C13.3504 25.3536 13.77 26.1234 14.2009 26.8741ZM20.0664 32.3179C19.2565 31.3369 18.4487 30.2514 17.6599 29.0841C18.4257 29.1178 19.2065 29.135 20 29.135C20.8152 29.135 21.6211 29.1144 22.4143 29.0748C21.6355 30.2632 20.8491 31.3502 20.0664 32.3179ZM28.2217 22.1746C28.7563 23.543 29.2069 24.8667 29.5647 26.1255C28.4051 26.4227 27.153 26.662 25.8337 26.8397C26.2565 26.0872 26.6658 25.3253 27.0616 24.5544C27.464 23.7709 27.8507 22.9774 28.2217 22.1746ZM25.5816 23.5958C24.9757 24.7777 24.3358 25.937 23.6628 27.0722C22.4438 27.1691 21.2221 27.2173 20 27.2165C18.7552 27.2165 17.5446 27.173 16.3787 27.0881C15.6882 25.9556 15.0361 24.7942 14.4237 23.6064H14.4239C13.8144 22.4248 13.2452 21.2177 12.7173 19.9876C13.2438 18.7572 13.8114 17.5495 14.4187 16.3671L14.4186 16.3672C15.0257 15.1845 15.6726 14.028 16.3579 12.9004C17.5474 12.7993 18.7671 12.7467 19.9998 12.7467H20C21.2383 12.7467 22.4596 12.7999 23.6488 12.9016C24.3271 14.0276 24.9699 15.18 25.5759 16.3569C26.1853 17.5367 26.7604 18.7386 27.3002 19.9604C26.7659 21.1947 26.1927 22.4073 25.5816 23.5958ZM29.1063 2.17057C30.4455 3.03794 30.9664 6.53566 30.1249 11.1225C30.0712 11.4151 30.0109 11.7132 29.9453 12.0155C28.2857 11.5853 26.4838 11.2655 24.5973 11.0667C23.4983 9.30934 22.3595 7.71162 21.2163 6.32847C21.5159 6.00417 21.8226 5.68828 22.1362 5.3811C25.0891 2.49566 27.8489 1.35636 29.1063 2.17057ZM20 15.9313C21.9725 15.9313 23.5716 17.7269 23.5716 19.9418C23.5716 22.1567 21.9725 23.9523 20 23.9523C18.0275 23.9523 16.4284 22.1567 16.4284 19.9418C16.4284 17.7269 18.0275 15.9313 20 15.9313Z" fill="#00D8FF"/>
</g>
<defs>
<clipPath id="clip0_105_269">
<rect width="40" height="40" fill="white"/>
</clipPath>
</defs>
</svg>
