<svg width="40" height="29" viewBox="0 0 40 29" fill="none" xmlns="http://www.w3.org/2000/svg">
<g clip-path="url(#clip0_105_277)">
<path d="M34.4182 16.6922C33.0267 16.6992 31.8172 17.0232 30.8046 17.5021C30.4329 16.7907 30.0614 16.1569 29.9959 15.692C29.923 15.1498 29.8356 14.8187 29.923 14.1707C30.0105 13.5228 30.4039 12.6 30.3965 12.5297C30.3893 12.4593 30.309 12.1282 29.5077 12.1212C28.7063 12.1141 28.0141 12.2691 27.934 12.4733C27.8538 12.6775 27.7009 13.1424 27.5989 13.6212C27.4604 14.3257 25.9961 16.8399 25.1584 18.157C24.8887 17.643 24.6556 17.1922 24.6045 16.833C24.5317 16.2908 24.4442 15.9597 24.5317 15.3117C24.6192 14.6637 25.0126 13.7412 25.0052 13.6706C24.9979 13.6002 24.9177 13.2692 24.1164 13.2622C23.3149 13.2551 22.6227 13.4101 22.5427 13.6143C22.4626 13.8187 22.3751 14.2975 22.2076 14.7624C22.0399 15.2273 20.0947 19.425 19.5847 20.5095C19.3786 20.9484 19.1624 21.3829 18.9363 21.8125C18.9363 21.8125 18.929 21.8337 18.9071 21.8689C18.8361 22.0036 18.7633 22.1374 18.6887 22.2703V22.2773C18.5793 22.4676 18.4628 22.6436 18.4045 22.6436C18.3607 22.6436 18.2806 22.1365 18.419 21.4463C18.7104 19.9884 19.4025 17.7205 19.3954 17.643C19.3954 17.6007 19.5264 17.2064 18.9437 17.002C18.3753 16.7978 18.1714 17.1358 18.1203 17.1358C18.0693 17.1358 18.0328 17.2556 18.0328 17.2556C18.0328 17.2556 18.6668 14.706 16.8235 14.706C15.6724 14.706 14.0841 15.9245 13.2972 17.0232C12.4028 17.4937 11.5091 17.9656 10.6161 18.4389C10.1864 18.6713 9.74194 18.9038 9.32665 19.122C9.29743 19.0939 9.26837 19.0586 9.23915 19.0305C7.00973 16.7274 2.88619 15.1004 3.06102 12.0086C3.12665 10.8816 3.52725 7.92349 10.9805 4.33157C17.1149 1.40862 21.9963 2.2185 22.8414 4.01454C24.0508 6.57832 20.2259 11.3395 13.8874 12.0296C11.4686 12.2903 10.2008 11.3887 9.88037 11.0507C9.54523 10.6984 9.49414 10.6773 9.37024 10.7478C9.16634 10.8536 9.29743 11.1704 9.37024 11.3535C9.55976 11.8323 10.3393 12.6775 11.6579 13.0932C12.8237 13.4593 15.6577 13.6637 19.0893 12.3818C22.9288 10.9449 25.9305 6.95154 25.049 3.60612C24.1673 0.211308 18.3389 -0.908515 12.8237 0.986001C9.54523 2.11307 5.98978 3.88781 3.43257 6.19799C0.394439 8.94469 -0.0864748 11.3324 0.110234 12.3326C0.817074 15.8822 5.88057 18.1924 7.90594 19.9038C7.80391 19.9602 7.70907 20.0095 7.62908 20.0518C6.61631 20.5377 2.75495 22.4886 1.79327 24.5523C0.700517 26.8905 1.96827 28.567 2.80604 28.7922C5.407 29.4895 8.08077 28.2359 9.51601 26.1651C10.9513 24.0945 10.7764 21.404 10.1135 20.1715C10.1061 20.1574 10.099 20.1432 10.0843 20.1292C10.3466 19.9813 10.6161 19.8263 10.8784 19.6785C11.3606 19.4029 11.8489 19.1375 12.3429 18.8825C12.0951 19.5375 11.9129 20.3193 11.8256 21.4463C11.7162 22.7704 12.2771 24.4888 13.013 25.1649C13.341 25.4609 13.7271 25.4679 13.9749 25.4679C14.8345 25.4679 15.2207 24.7776 15.6506 23.9606C16.1751 22.9606 16.6486 21.7985 16.6486 21.7985C16.6486 21.7985 16.0585 24.9397 17.6614 24.9397C18.2442 24.9397 18.8343 24.2071 19.0966 23.8339V23.8409C19.0966 23.8409 19.1112 23.8197 19.1404 23.7705C19.1987 23.679 19.2351 23.6225 19.2351 23.6225V23.6086C19.4682 23.214 19.9928 22.3196 20.7723 20.8335C21.7777 18.9178 22.7468 16.5232 22.7468 16.5232C22.7468 16.5232 22.8343 17.1077 23.1328 18.0797C23.3078 18.6502 23.6719 19.277 23.9634 19.8827C23.7303 20.1997 23.5845 20.3757 23.5845 20.3757L23.5919 20.3828C23.4023 20.6222 23.1985 20.8827 22.9725 21.1365C22.1783 22.0519 21.2314 23.1015 21.1001 23.4042C20.947 23.7634 20.9836 24.0241 21.2751 24.2354C21.4864 24.3904 21.8651 24.4114 22.2513 24.3904C22.9653 24.341 23.468 24.172 23.7156 24.0664C24.1018 23.9326 24.5535 23.7282 24.976 23.4254C25.7557 22.8689 26.2291 22.0731 26.1855 21.0238C26.1636 20.4462 25.9669 19.8686 25.7265 19.3262C25.7994 19.2278 25.8649 19.1291 25.9378 19.0305C27.169 17.2908 28.1235 15.3821 28.1235 15.3821C28.1235 15.3821 28.211 15.9666 28.5096 16.9387C28.6554 17.4317 28.9541 17.967 29.2163 18.4881C28.0579 19.3968 27.3439 20.4532 27.0889 21.1434C26.63 22.4253 26.9869 23.0027 27.6645 23.1366C27.9704 23.2 28.4076 23.0591 28.7282 22.9253C29.1361 22.7985 29.617 22.5803 30.0761 22.2561C30.8557 21.6999 31.606 20.925 31.5623 19.8757C31.5404 19.3968 31.4093 18.9248 31.2271 18.467C32.2107 18.0727 33.4784 17.8543 35.0957 18.0374C38.5638 18.4318 39.2486 20.5235 39.1173 21.4041C38.9863 22.2844 38.2577 22.7633 38.0174 22.9112C37.7768 23.0592 37.6968 23.1085 37.7187 23.214C37.7477 23.369 37.8643 23.3621 38.0683 23.3338C38.3525 23.2846 39.8898 22.6224 39.9553 21.0025C40.0646 18.9319 38.0246 16.6711 34.4182 16.6922ZM7.66548 25.4116C6.51429 26.6229 4.91156 27.0807 4.2194 26.6934C3.47632 26.2778 3.76771 24.4888 5.18107 23.2071C6.04072 22.4253 7.14816 21.6997 7.88406 21.2561C8.05156 21.1575 8.29936 21.0167 8.59809 20.8406C8.64902 20.8123 8.67824 20.7983 8.67824 20.7983L8.85308 20.6926C9.37024 22.5238 8.87495 24.1368 7.66548 25.4116ZM16.044 19.9038C15.6432 20.8477 14.8054 23.2634 14.2955 23.1296C13.8583 23.0169 13.5886 21.1857 14.208 19.3756C14.5212 18.467 15.1842 17.3823 15.5704 16.9599C16.1969 16.2837 16.8891 16.0581 17.0566 16.333C17.268 16.6922 16.2916 19.3122 16.044 19.9038ZM22.958 23.1014C22.7903 23.186 22.6302 23.2423 22.5572 23.2C22.5063 23.1718 22.6302 23.0591 22.6302 23.0591C22.6302 23.0591 23.4972 22.1577 23.8395 21.7491C24.0364 21.5097 24.2693 21.228 24.5171 20.911V21.0025C24.5171 22.0802 23.4388 22.8056 22.9578 23.1014H22.958ZM28.291 21.9252C28.1671 21.8406 28.189 21.5589 28.6043 20.6785C28.7646 20.3334 29.1433 19.7559 29.7919 19.1995C29.8647 19.4249 29.9158 19.6433 29.9084 19.8475C29.9011 21.2069 28.8958 21.7139 28.291 21.9252Z" fill="#CD6799"/>
</g>
<defs>
<clipPath id="clip0_105_277">
<rect width="40" height="29" fill="white"/>
</clipPath>
</defs>
</svg>
