<svg width="40" height="40" viewBox="0 0 40 40" fill="none" xmlns="http://www.w3.org/2000/svg">
<path d="M36.2625 6.2875L29.055 2.8175C28.6479 2.62125 28.1899 2.55648 27.7445 2.63219C27.299 2.70789 26.8881 2.92031 26.5687 3.24L2.97498 24.75C2.68871 25.0098 2.51736 25.3726 2.49861 25.7587C2.47985 26.1448 2.61524 26.5225 2.87497 26.8088C2.90622 26.8425 2.93748 26.875 2.97123 26.905L4.89748 28.655C5.14918 28.8841 5.47317 29.0178 5.81318 29.0328C6.15319 29.0479 6.48774 28.9434 6.75873 28.7375L35.1775 7.1875C35.3921 7.02462 35.648 6.92488 35.9163 6.89952C36.1845 6.87416 36.4545 6.92419 36.6959 7.04397C36.9373 7.16374 37.1404 7.34852 37.2825 7.57749C37.4245 7.80646 37.4999 8.07054 37.5 8.34V8.25625C37.5 7.84488 37.3838 7.44187 37.1649 7.09358C36.946 6.7453 36.6332 6.46589 36.2625 6.2875Z" fill="#0065A9"/>
<path d="M36.2625 33.7125L29.055 37.1837C28.6478 37.3794 28.19 37.4439 27.7446 37.3682C27.2992 37.2925 26.8884 37.0805 26.5687 36.7612L2.97498 15.25C2.68871 14.9902 2.51736 14.6274 2.49861 14.2413C2.47985 13.8552 2.61524 13.4775 2.87497 13.1912C2.90622 13.1575 2.93748 13.125 2.97123 13.095L4.89748 11.345C5.14943 11.115 5.47417 10.9807 5.81502 10.9656C6.15586 10.9505 6.49119 11.0556 6.76248 11.2625L35.1775 32.8125C35.3921 32.9754 35.648 33.0751 35.9163 33.1005C36.1845 33.1258 36.4545 33.0758 36.6959 32.956C36.9373 32.8363 37.1404 32.6515 37.2825 32.4225C37.4245 32.1935 37.4999 31.9295 37.5 31.66V31.75C37.4986 32.1603 37.3819 32.5619 37.163 32.9089C36.9442 33.256 36.6321 33.5345 36.2625 33.7125Z" fill="#007ACC"/>
<path d="M29.055 37.1838C28.6478 37.3794 28.19 37.4439 27.7446 37.3682C27.2992 37.2925 26.8884 37.0805 26.5687 36.7612C26.7482 36.9384 26.976 37.0587 27.2236 37.1069C27.4711 37.1552 27.7274 37.1293 27.9603 37.0325C28.1932 36.9358 28.3924 36.7724 28.5329 36.5629C28.6733 36.3535 28.7489 36.1072 28.75 35.855V4.145C28.7502 3.89161 28.6752 3.64386 28.5345 3.43313C28.3938 3.22241 28.1937 3.05818 27.9595 2.96127C27.7254 2.86435 27.4678 2.83911 27.2193 2.88873C26.9708 2.93835 26.7427 3.0606 26.5637 3.24C26.8831 2.92043 27.2939 2.70799 27.7393 2.63208C28.1848 2.55617 28.6427 2.62052 29.05 2.81625L36.2562 6.28125C36.6281 6.45875 36.9422 6.73778 37.1622 7.08613C37.3823 7.43448 37.4994 7.83796 37.5 8.25V31.75C37.5001 32.1617 37.3838 32.5651 37.1647 32.9136C36.9455 33.2622 36.6323 33.5417 36.2612 33.72L29.055 37.1838Z" fill="#1F9CF0"/>
</svg>
